<svg width="68" height="68" viewBox="0 0 68 68" fill="none" xmlns="http://www.w3.org/2000/svg">
<path d="M51.2244 58H16.776C15.8342 58 15.0706 57.2365 15.0706 56.2946V11.7055C15.0707 10.7636 15.8342 10.0001 16.776 10.0001H51.2243C52.1661 10.0001 52.9297 10.7636 52.9297 11.7055V56.2946C52.9297 57.2365 52.1662 58 51.2244 58Z" fill="#C7C7CC"/>
<path d="M51.2246 10.0001H47.6511C48.5929 10.0001 49.3565 10.7636 49.3565 11.7055V56.2947C49.3565 57.2365 48.593 58.0001 47.6511 58.0001H51.2246C52.1665 58.0001 52.93 57.2366 52.93 56.2947V11.7055C52.9299 10.7636 52.1664 10.0001 51.2246 10.0001Z" fill="#AEAEB2"/>
<path d="M18.644 53.1759V14.8242C18.644 14.1335 19.2039 13.5736 19.8947 13.5736H48.1057C48.7964 13.5736 49.3564 14.1335 49.3564 14.8242V53.176C49.3564 53.8667 48.7965 54.4267 48.1057 54.4267H19.8947C19.204 54.4266 18.644 53.8667 18.644 53.1759Z" fill="#D1D1D6"/>
<path d="M45.3757 44.5378H22.6373C22.5253 44.5378 22.4145 44.5158 22.311 44.4729C22.2076 44.4301 22.1136 44.3673 22.0344 44.2881C21.9552 44.2089 21.8924 44.1149 21.8495 44.0115C21.8067 43.908 21.7847 43.7971 21.7847 43.6852C21.7847 43.5732 21.8067 43.4623 21.8495 43.3589C21.8924 43.2554 21.9552 43.1614 22.0344 43.0822C22.1136 43.003 22.2076 42.9402 22.311 42.8974C22.4145 42.8546 22.5253 42.8325 22.6373 42.8325H45.3757C45.4877 42.8325 45.5986 42.8546 45.702 42.8974C45.8055 42.9402 45.8995 43.003 45.9787 43.0822C46.0579 43.1614 46.1207 43.2554 46.1635 43.3589C46.2064 43.4623 46.2284 43.5732 46.2284 43.6852C46.2284 43.7971 46.2064 43.908 46.1635 44.0115C46.1207 44.1149 46.0579 44.2089 45.9787 44.2881C45.8995 44.3673 45.8055 44.4301 45.702 44.4729C45.5986 44.5158 45.4877 44.5378 45.3757 44.5378ZM45.3757 49.0497H22.6373C22.4112 49.0497 22.1943 48.9599 22.0344 48.8C21.8745 48.6401 21.7847 48.4232 21.7847 48.1971C21.7847 47.9709 21.8745 47.7541 22.0344 47.5942C22.1943 47.4342 22.4112 47.3444 22.6373 47.3444H45.3757C45.8467 47.3444 46.2284 47.7262 46.2284 48.1971C46.2284 48.668 45.8467 49.0497 45.3757 49.0497Z" fill="#AEAEB2"/>
<path d="M28.8622 36.4473V26.9189H25.9773V36.4472C25.9773 37.2318 26.6127 37.8681 27.3973 37.8691L27.4385 37.8692C28.2244 37.8703 28.8622 37.2334 28.8622 36.4473Z" fill="#CCE4FF"/>
<path d="M30.8413 30.3581H26.0487C23.8791 30.3581 22.1201 28.5992 22.1201 26.4295C22.1201 24.2598 23.879 22.5009 26.0487 22.5009H30.8413V30.3581Z" fill="#66AFFF"/>
<path d="M38.6144 19.8631L30.8413 22.501V30.3581L38.6144 32.996C38.8735 33.0839 39.1423 32.8913 39.1423 32.6177V20.2413C39.1423 19.9678 38.8735 19.7751 38.6144 19.8631Z" fill="#007AFF"/>
<path d="M45.2047 27.119H42.5946C42.4121 27.119 42.2371 27.0465 42.108 26.9175C41.979 26.7884 41.9065 26.6134 41.9065 26.4309C41.9065 26.2484 41.979 26.0733 42.108 25.9443C42.2371 25.8152 42.4121 25.7428 42.5946 25.7428H45.2047C45.3872 25.7428 45.5622 25.8152 45.6913 25.9443C45.8203 26.0733 45.8928 26.2484 45.8928 26.4309C45.8928 26.6134 45.8203 26.7884 45.6913 26.9175C45.5622 27.0465 45.3872 27.119 45.2047 27.119ZM42.9773 23.4004C42.8351 23.4005 42.6964 23.3565 42.5802 23.2746C42.4641 23.1926 42.3761 23.0766 42.3285 22.9427C42.2809 22.8087 42.276 22.6633 42.3144 22.5264C42.3528 22.3895 42.4327 22.2678 42.5431 22.1782L44.3887 20.6789C44.5307 20.5676 44.7108 20.5165 44.8901 20.5366C45.0695 20.5568 45.2337 20.6465 45.3475 20.7866C45.4613 20.9267 45.5155 21.1058 45.4985 21.2855C45.4815 21.4652 45.3945 21.6309 45.2565 21.7471L43.4108 23.2464C43.2884 23.3461 43.1352 23.4005 42.9773 23.4004ZM44.8221 32.3368C44.6642 32.337 44.5111 32.2826 44.3886 32.1828L42.543 30.6836C42.4024 30.5681 42.3132 30.4018 42.2949 30.2208C42.2767 30.0398 42.3308 29.859 42.4455 29.7178C42.5602 29.5766 42.7261 29.4866 42.907 29.4674C43.0878 29.4482 43.2689 29.5014 43.4107 29.6154L45.2564 31.1146C45.3667 31.2043 45.4466 31.3259 45.485 31.4628C45.5234 31.5997 45.5185 31.7451 45.4709 31.8791C45.4233 32.0131 45.3354 32.129 45.2192 32.211C45.103 32.2929 44.9643 32.3369 44.8221 32.3368Z" fill="#007AFF"/>
<path d="M33.9572 16.8417C35.1573 16.8417 36.1302 15.8688 36.1302 14.6687C36.1302 13.4685 35.1573 12.4956 33.9572 12.4956C32.7571 12.4956 31.7842 13.4685 31.7842 14.6687C31.7842 15.8688 32.7571 16.8417 33.9572 16.8417Z" fill="#007AFF"/>
</svg>
