<svg width="68" height="68" viewBox="0 0 68 68" fill="none" xmlns="http://www.w3.org/2000/svg">
<path d="M36.1911 25.1425C36.5791 25.1425 36.8927 25.4587 36.8927 25.8467C36.8927 26.2348 36.579 26.551 36.1911 26.551H34.6949V30.1412C34.695 30.2334 34.6769 30.3247 34.6417 30.4098C34.6065 30.495 34.5549 30.5723 34.4897 30.6375C34.4246 30.7027 34.3472 30.7544 34.262 30.7896C34.1769 30.8248 34.0856 30.8429 33.9935 30.8429C33.6027 30.8429 33.2891 30.5293 33.2891 30.1412V26.551H31.8461C30.1134 26.551 29.34 28.1481 29.3373 28.1535C29.1646 28.5016 28.742 28.6425 28.3966 28.4697C28.0484 28.2969 27.9076 27.8744 28.0804 27.5263C28.083 27.5209 29.2311 25.1425 31.8461 25.1425H36.1911Z" fill="#AEAEB2"/>
<path fill-rule="evenodd" clip-rule="evenodd" d="M31.8886 30.1412H36.0955C36.4064 30.1412 36.6588 30.3938 36.6588 30.702V35.4137C36.6588 35.722 36.4064 35.9772 36.0955 35.9772H31.8886C31.5778 35.9772 31.3252 35.722 31.3252 35.4137V30.702C31.3252 30.3938 31.5777 30.1412 31.8886 30.1412Z" fill="#C7C7CC"/>
<path fill-rule="evenodd" clip-rule="evenodd" d="M33.2839 30.1412H36.0956C36.4065 30.1412 36.6589 30.3938 36.6589 30.702V35.4137C36.6589 35.722 36.4066 35.9772 36.0956 35.9772H33.2839C33.5922 35.9772 33.8474 35.722 33.8474 35.4137V30.702C33.8474 30.3938 33.5922 30.1412 33.2839 30.1412Z" fill="#AEAEB2"/>
<path fill-rule="evenodd" clip-rule="evenodd" d="M42.1121 58V42.5704C42.1121 38.1058 38.458 34.4517 33.9935 34.4517C29.5262 34.4517 25.8721 38.1058 25.8721 42.5704V58H42.1121Z" fill="#AEAEB2"/>
<path fill-rule="evenodd" clip-rule="evenodd" d="M42.1121 58V42.5704C42.1121 38.1058 38.458 34.4517 33.9935 34.4517C33.5124 34.4517 33.0421 34.4943 32.585 34.574C36.3878 35.2437 39.3006 38.5842 39.3006 42.5704V58H42.1121Z" fill="#8E8E93"/>
<path fill-rule="evenodd" clip-rule="evenodd" d="M33.9934 53.445C37.6793 53.445 40.6876 50.2028 40.6876 46.2244C40.6876 42.2489 37.6793 39.0067 33.9934 39.0067C30.3047 39.0067 27.2964 42.2489 27.2964 46.2244C27.2964 50.2028 30.3047 53.445 33.9934 53.445Z" fill="#D1D1D6"/>
<path fill-rule="evenodd" clip-rule="evenodd" d="M33.9935 39.0067C37.69 39.0067 40.6877 42.2383 40.6877 46.2244C40.6877 50.2134 37.6899 53.445 33.9935 53.445C33.5097 53.445 33.0394 53.3891 32.585 53.2855C35.6092 52.5866 37.8761 49.6926 37.8761 46.2245C37.8761 42.7592 35.6092 39.8626 32.585 39.1663C33.047 39.0604 33.5195 39.0069 33.9935 39.0067Z" fill="#C7C7CC"/>
<path d="M41.1342 13.4388C41.1323 13.2529 41.2043 13.0737 41.3343 12.9407C41.4643 12.8077 41.6418 12.7317 41.8277 12.7293C42.2131 12.724 42.532 13.035 42.5347 13.4229C42.5372 13.4388 42.6755 19.4476 38.3225 22.4266C38.0037 22.6444 37.5651 22.5621 37.3471 22.2433C37.1293 21.9215 37.2117 21.4858 37.5305 21.2679C41.2564 18.7193 41.1342 13.4521 41.1342 13.4388Z" fill="#66AFFF"/>
<path fill-rule="evenodd" clip-rule="evenodd" d="M40.3609 10C39.4866 10 38.769 10.7175 38.769 11.5918C38.769 12.506 39.6142 12.9392 40.3609 13.1836L44.6102 14.5816C44.9822 14.7037 45.1443 14.9748 45.1443 15.3177V20.3855H49.8561V16.4578C49.8561 16.0857 50.058 15.8972 50.4168 15.8972H55.8727C56.2447 15.8972 56.4361 15.7271 56.4361 15.3337V14.5895C56.4361 14.26 56.3298 13.9172 56.0401 13.6275L52.8511 10.4013C52.5987 10.1435 52.2797 10 51.8918 10H40.3609Z" fill="#CCE4FF"/>
<path fill-rule="evenodd" clip-rule="evenodd" d="M47.0417 20.3855H49.856V16.4578C49.856 16.0857 50.058 15.8972 50.4167 15.8972H47.6051C47.2464 15.8972 47.0417 16.0858 47.0417 16.4578V20.3855ZM53.0609 15.8971H55.8726C56.2446 15.8971 56.436 15.727 56.436 15.3336V14.5894C56.436 14.2599 56.3298 13.9171 56.0401 13.6274L52.8511 10.4013C52.5986 10.1435 52.2797 10 51.8917 10H49.0801C49.4681 10 49.7843 10.1435 50.0368 10.4013L53.2284 13.6275C53.5155 13.9172 53.6244 14.26 53.6244 14.5895V15.3337C53.6243 15.727 53.433 15.8971 53.0609 15.8971Z" fill="#007AFF"/>
<path fill-rule="evenodd" clip-rule="evenodd" d="M44.0654 19.9178H50.935C51.2433 19.9178 51.4958 20.1703 51.4958 20.4813V24.4649L47.2917 25.2382L43.502 24.4649V20.4813C43.5021 20.3319 43.5614 20.1886 43.6671 20.083C43.7727 19.9773 43.916 19.9179 44.0654 19.9178Z" fill="#D1D1D6"/>
<path fill-rule="evenodd" clip-rule="evenodd" d="M48.1208 19.9178H50.935C51.2433 19.9178 51.4959 20.1703 51.4959 20.4813V24.4649H48.6843V20.4813C48.6842 20.3318 48.6248 20.1886 48.5192 20.0829C48.4135 19.9773 48.2703 19.9179 48.1208 19.9178Z" fill="#C7C7CC"/>
<path fill-rule="evenodd" clip-rule="evenodd" d="M41.5035 58H53.4941C54.9133 58 56.0746 56.8413 56.0746 55.4222V40.3382C56.0746 34.9247 51.4956 35.9372 51.4956 29.6204V24.4649H43.5018V29.6204C43.5018 35.9372 38.9255 34.9247 38.9255 40.3382V55.4222C38.9257 56.8386 40.0844 58 41.5035 58Z" fill="#CCE4FF"/>
<path fill-rule="evenodd" clip-rule="evenodd" d="M50.6826 58H53.4941C54.9133 58 56.0746 56.8413 56.0746 55.4222V40.3382C56.0746 34.9247 51.4956 35.9372 51.4956 29.6204V24.4649H48.6841V29.6204C48.6841 35.9372 53.2628 34.9247 53.2628 40.3382V55.4222C53.2629 56.8413 52.1016 58 50.6826 58Z" fill="#007AFF"/>
<path fill-rule="evenodd" clip-rule="evenodd" d="M25.1546 33.1603V28.9613C25.1546 26.2082 22.9011 23.9547 20.1505 23.9547C17.3974 23.9547 15.1438 26.2082 15.1438 28.9613V33.1603H25.1546Z" fill="#CCE4FF"/>
<path fill-rule="evenodd" clip-rule="evenodd" d="M25.1547 33.1603V28.9613C25.1547 26.2082 22.9038 23.9547 20.1506 23.9547C19.6616 23.9547 19.1885 24.0264 18.7422 24.1593C20.8177 24.7706 22.3431 26.6946 22.3431 28.9614V33.1604H25.1547V33.1603Z" fill="#007AFF"/>
<path fill-rule="evenodd" clip-rule="evenodd" d="M19.0344 28.9826H21.2639C21.4133 28.9827 21.5566 29.0421 21.6622 29.1477C21.7679 29.2533 21.8273 29.3966 21.8274 29.5459V33.6918C21.8274 34 21.5749 34.2525 21.2639 34.2525H19.0344C18.7235 34.2525 18.4709 34 18.4709 33.6918V29.5459C18.471 29.3966 18.5304 29.2533 18.6361 29.1477C18.7417 29.0421 18.885 28.9827 19.0344 28.9826Z" fill="#66AFFF"/>
<path fill-rule="evenodd" clip-rule="evenodd" d="M15.1436 33.1603H25.1544V36.8196H15.1436V33.1603Z" fill="#D1D1D6"/>
<path fill-rule="evenodd" clip-rule="evenodd" d="M22.343 33.1603H25.1546V36.8196H22.343V33.1603Z" fill="#C7C7CC"/>
<path fill-rule="evenodd" clip-rule="evenodd" d="M14.166 58H26.1327C27.5651 58 28.7344 56.8307 28.7344 55.3984V51.909L27.8005 47.1254L28.7344 42.3445V38.8526C28.7344 37.4227 27.5651 36.2509 26.1327 36.2509H14.166C12.7361 36.2509 11.5642 37.4227 11.5642 38.8526V42.3445L12.185 47.1254L11.5642 51.909V55.3984C11.5642 56.8307 12.7361 58 14.166 58Z" fill="#CCE4FF"/>
<path fill-rule="evenodd" clip-rule="evenodd" d="M11.5642 42.3446H28.7343V51.9091H11.5642V42.3446Z" fill="#66AFFF"/>
<path fill-rule="evenodd" clip-rule="evenodd" d="M38.9258 42.7644H41.9819C42.6808 42.7644 42.9281 42.8415 43.316 42.2914C44.3231 40.8643 45.8221 39.9581 47.4989 39.9581C49.1759 39.9581 50.6773 40.8643 51.6818 42.294C52.0698 42.8441 52.3169 42.7644 53.0158 42.7644H56.0746V50.3703H53.0158C52.3169 50.3703 52.0697 50.2905 51.6818 50.8406C50.6773 52.2704 49.1759 53.1766 47.4989 53.1766C45.822 53.1766 44.3231 52.2704 43.316 50.8433C42.928 50.2932 42.6808 50.3703 41.9819 50.3703H38.9258V42.7644Z" fill="#66AFFF"/>
<path fill-rule="evenodd" clip-rule="evenodd" d="M23.3208 58H26.1324C27.5648 58 28.7341 56.8307 28.7341 55.3983V51.909L28.0065 47.1268L28.7341 42.3446V38.8527C28.7341 37.4228 27.5648 36.2509 26.1324 36.2509H23.3208C24.7505 36.2509 25.9225 37.4228 25.9225 38.8527V55.3983C25.9225 56.8307 24.7505 58 23.3208 58Z" fill="#007AFF"/>
</svg>
