<svg width="68" height="68" viewBox="0 0 68 68" fill="none" xmlns="http://www.w3.org/2000/svg">
<path d="M55.1026 15.7948L49.3079 34L55.1026 52.2053H58V15.7948H55.1026Z" fill="#007AFF"/>
<path d="M10 15.7947H55.1026V52.2052H10V15.7947Z" fill="#66AFFF"/>
<path d="M55.1027 17.9678H12.8974C12.7053 17.9678 12.5211 18.0441 12.3853 18.18C12.2494 18.3158 12.1731 18.5001 12.1731 18.6922V49.3079C12.1731 49.5 12.2494 49.6843 12.3853 49.8201C12.5211 49.9559 12.7053 50.0323 12.8974 50.0323H55.1027C55.2948 50.0323 55.479 49.9559 55.6149 49.8201C55.7507 49.6843 55.827 49.5 55.827 49.3079V18.6922C55.827 18.5001 55.7507 18.3158 55.6149 18.18C55.479 18.0441 55.2948 17.9678 55.1027 17.9678ZM33.2757 37.5489C31.6246 37.2124 30.3783 35.7491 30.3783 34C30.3783 32.251 31.6246 30.7877 33.2757 30.4512V37.5489ZM34.7244 30.4512C36.3755 30.7877 37.6218 32.251 37.6218 34C37.6218 35.7491 36.3755 37.2124 34.7244 37.5489V30.4512ZM13.6218 26.66H16.5192V41.3401H13.6218V26.66ZM13.6218 42.7888H17.2435C17.4356 42.7888 17.6199 42.7125 17.7557 42.5766C17.8915 42.4408 17.9679 42.2565 17.9679 42.0644V38.5804C19.7199 37.7487 20.8652 35.9689 20.8652 34C20.8652 32.0312 19.7199 30.2513 17.9679 29.4196V25.9357C17.9679 25.7435 17.8915 25.5593 17.7557 25.4235C17.6199 25.2876 17.4356 25.2113 17.2435 25.2113H13.6218V19.4165H33.2757V28.9822C30.8219 29.3348 28.9296 31.4502 28.9296 34C28.9296 36.5499 30.8219 38.6652 33.2757 39.0179V48.5836H13.6218V42.7888ZM17.9679 31.1035C18.862 31.7759 19.4166 32.8422 19.4166 34C19.4166 35.1578 18.862 36.2242 17.9679 36.8966V31.1035ZM34.7244 48.5836V39.0179C37.1782 38.6653 39.0705 36.5499 39.0705 34C39.0705 31.4502 37.1782 29.3349 34.7244 28.9822V19.4165H54.3783V25.2113H50.7566C50.5645 25.2113 50.3802 25.2876 50.2444 25.4235C50.1086 25.5593 50.0322 25.7435 50.0322 25.9357V29.4197C48.2802 30.2514 47.1349 32.0312 47.1349 34C47.1349 35.9689 48.2802 37.7487 50.0322 38.5804V42.0644C50.0322 42.2565 50.1086 42.4408 50.2444 42.5766C50.3802 42.7125 50.5645 42.7888 50.7566 42.7888H54.3783V48.5836H34.7244ZM54.3783 26.66V41.3401H51.4809V26.66H54.3783ZM50.0322 36.8966C49.1381 36.2242 48.5836 35.1578 48.5836 34C48.5836 32.8422 49.1381 31.7758 50.0322 31.1035V36.8966Z" fill="white"/>
</svg>
