<svg width="68" height="68" viewBox="0 0 68 68" fill="none" xmlns="http://www.w3.org/2000/svg">
<rect width="68" height="68" fill="#1E1E1E"/>
<g clip-path="url(#clip0_229_131)">
<rect width="375" height="2681" transform="translate(-108 -544)" fill="#F2F2F7"/>
<path d="M48.6326 27.0821V24.6325C48.6326 19.957 46.4397 15.7936 43.0263 13.1148C42.7632 12.9084 41.9305 12.992 41.6533 12.8036C41.4207 12.6454 41.7459 12.2127 41.5039 12.0678C39.3099 10.7548 36.7432 10 34.0002 10C25.9188 10 19.3677 16.5512 19.3677 24.6325V27.0821H48.6326Z" fill="#CCE4FF"/>
<path d="M34.0001 10C33.239 10 32.4915 10.0582 31.7617 10.1702C34.2926 10.5489 36.7259 11.5455 38.8326 13.0019C39.0468 13.1499 39.7263 13.0215 39.9335 13.1789C40.1811 13.3669 39.9548 13.8429 40.1917 14.0438C43.5107 16.8591 45.7352 20.9048 45.7352 25.4007V27.0822H48.6326V24.6325C48.6326 19.957 46.4397 15.7936 43.0262 13.1148C42.7632 12.9084 41.7343 13.2452 41.4572 13.0568C41.2246 12.8987 41.7458 12.2127 41.5038 12.0679C39.3098 10.7548 36.7431 10 34.0001 10Z" fill="#66AFFF"/>
<path d="M38.8326 13.002C36.0131 14.0661 33.1648 15.3838 30.7986 16.7365C29.8386 17.286 28.9607 17.8355 28.1658 18.3841C29.4688 18.4979 30.5142 18.4673 31.9029 17.9179L32.3351 17.5388C34.7106 16.2484 37.4899 15.0151 40.1917 14.044L41.2758 12.7779L38.8326 13.002Z" fill="#66AFFF"/>
<path d="M38.8328 13.0024C39.3027 13.3274 39.7563 13.6753 40.1919 14.0449C40.9741 13.7638 41.7502 13.5033 42.5078 13.2712C42.6478 13.2277 42.8245 13.1747 43.0264 13.1148C42.5413 12.7343 42.0326 12.3849 41.5033 12.0688C40.6271 12.3493 39.7314 12.6633 38.8328 13.0024Z" fill="#007AFF"/>
<path d="M40.0464 46.0814V36.2969H27.9538V46.0814C27.9538 46.6064 27.6104 47.0689 27.108 47.2211C22.4659 48.6272 14.8708 49.9984 14.8708 56.3738V57.0601C14.8708 57.5792 15.2917 58 15.8108 58H52.1895C52.7086 58 53.1294 57.5792 53.1294 57.0601V56.3738C53.1294 49.9984 45.5344 48.6272 40.8923 47.2211C40.6476 47.1471 40.4333 46.9963 40.2809 46.7911C40.1286 46.5858 40.0464 46.337 40.0464 46.0814Z" fill="#D1D1D6"/>
<path d="M40.8921 47.2211C40.6474 47.1471 40.4331 46.9963 40.2808 46.7911C40.1284 46.5858 40.0462 46.337 40.0463 46.0814V36.2969H37.1489V47.1438C37.1489 47.6688 37.4923 48.1313 37.9947 48.2835C42.6369 49.6895 50.2319 50.1916 50.2319 56.5669V57.0601C50.2319 57.5792 49.8111 58 49.292 58H52.1893C52.7084 58 53.1293 57.5792 53.1293 57.0601V56.3738C53.1293 49.9984 45.5342 48.6272 40.8921 47.2211Z" fill="#C7C7CC"/>
<path d="M32.1253 17.5387C26.779 17.5387 22.4448 21.8727 22.4448 27.219V32.4029C22.4448 38.1862 30.2669 42.3839 34 42.3839C37.733 42.3839 45.5551 38.1862 45.5551 32.4029V27.219C45.5551 21.8727 41.2211 17.5387 35.8747 17.5387H32.1253Z" fill="#D1D1D6"/>
<path d="M35.8747 17.5387H32.9774C38.3237 17.5387 42.6578 21.8727 42.6578 27.219V32.4029C42.6578 37.5142 36.5483 41.3864 32.5513 42.2174C33.0767 42.3266 33.5662 42.3839 34 42.3839C37.733 42.3839 45.5551 38.1862 45.5551 32.4029V27.219C45.5551 21.8727 41.2211 17.5387 35.8747 17.5387Z" fill="#C7C7CC"/>
<path d="M27.4291 38.5357L23.6053 34.6305L22.7041 30.2159L23.4746 26.7449L18.8338 20.3383L17.376 12.2068C17.3534 12.0807 17.2816 11.9688 17.1765 11.8956C17.0714 11.8225 16.9415 11.7941 16.8154 11.8167L10.7824 12.8982C10.7183 12.9097 10.6571 12.934 10.6026 12.9698C10.5481 13.0056 10.5014 13.0521 10.4653 13.1064C10.4293 13.1607 10.4046 13.2218 10.3928 13.2859C10.3809 13.35 10.3822 13.4159 10.3966 13.4795L14.3614 31.0895C14.8016 33.0444 15.9337 34.7743 17.549 35.9602L26.3775 42.4415C26.7755 42.7338 27.3382 42.6629 27.6416 42.2732C28.5163 41.1491 28.4247 39.5524 27.4291 38.5357Z" fill="#AEAEB2"/>
<path d="M20.0911 27.3515L20.9746 32.2798C21.1421 33.2142 22.0352 33.8358 22.9697 33.6683C23.904 33.5008 24.5256 32.6076 24.3581 31.6732L23.4746 26.7448L20.0911 27.3515ZM40.5712 38.5357L44.3951 34.6305L45.2963 30.2159L44.5258 26.7449L49.1666 20.3383L50.6244 12.2068C50.647 12.0807 50.7187 11.9688 50.8239 11.8956C50.929 11.8225 51.0588 11.7941 51.1849 11.8167L57.2179 12.8983C57.2821 12.9098 57.3433 12.9341 57.3978 12.9699C57.4523 13.0057 57.499 13.0522 57.535 13.1065C57.5711 13.1608 57.5958 13.2219 57.6076 13.286C57.6194 13.3501 57.6181 13.416 57.6038 13.4796L53.6389 31.0896C53.1988 33.0445 52.0666 34.7744 50.4513 35.9603L41.6229 42.4416C41.2248 42.7339 40.6621 42.663 40.3588 42.2733C39.4841 41.1491 39.5757 39.5524 40.5712 38.5357Z" fill="#AEAEB2"/>
<path d="M57.2177 12.8982L55.1248 12.523C55.197 12.5792 55.2518 12.6548 55.2826 12.741C55.3135 12.8271 55.3192 12.9203 55.2991 13.0096L51.3343 30.6196C50.8942 32.5745 49.7621 34.3044 48.1467 35.4903L39.9373 41.5172C40.0383 41.7893 40.1804 42.0443 40.3587 42.2734C40.6619 42.6631 41.2246 42.7339 41.6228 42.4416L50.4512 35.9603C52.0665 34.7745 53.1987 33.0446 53.6388 31.0896L57.6037 13.4796C57.618 13.416 57.6193 13.3502 57.6074 13.286C57.5956 13.2219 57.5709 13.1608 57.5349 13.1065C57.4988 13.0522 57.4521 13.0057 57.3976 12.9699C57.3431 12.9341 57.2819 12.9097 57.2177 12.8982Z" fill="#8E8E93"/>
<path d="M47.9093 27.3515L47.0258 32.2799C46.8583 33.2142 45.9651 33.8358 45.0307 33.6683C44.0964 33.5008 43.4747 32.6076 43.6423 31.6732L44.5258 26.7449L47.9093 27.3515Z" fill="#AEAEB2"/>
<path d="M47.4447 27.2683C47.3217 27.2462 47.1949 27.2739 47.0922 27.3452C46.9895 27.4166 46.9194 27.5258 46.8971 27.6488L46.0598 32.2799C45.9409 32.9436 45.455 33.4478 44.849 33.6251C44.9081 33.6424 44.9686 33.6571 45.0307 33.6683C45.965 33.8358 46.8582 33.2142 47.0258 32.2799L47.826 27.8161C47.8481 27.6929 47.8203 27.5659 47.7488 27.4632C47.6773 27.3605 47.5679 27.2904 47.4447 27.2683ZM20.4797 27.2683C20.6028 27.2462 20.7296 27.2739 20.8322 27.3452C20.9349 27.4166 21.0051 27.5258 21.0273 27.6488L21.8646 32.2799C21.9836 32.9436 22.4695 33.4478 23.0755 33.6251C23.0163 33.6424 22.9558 33.6571 22.8938 33.6683C21.9595 33.8358 21.0662 33.2142 20.8987 32.2799L20.0984 27.8161C20.0764 27.6929 20.1042 27.566 20.1757 27.4632C20.2472 27.3605 20.3565 27.2904 20.4797 27.2683Z" fill="#8E8E93"/>
</g>
<defs>
<clipPath id="clip0_229_131">
<rect width="375" height="2681" fill="white" transform="translate(-108 -544)"/>
</clipPath>
</defs>
</svg>
