<svg width="68" height="68" viewBox="0 0 68 68" fill="none" xmlns="http://www.w3.org/2000/svg">
<rect width="68" height="68" fill="#1E1E1E"/>
<g clip-path="url(#clip0_229_131)">
<rect width="375" height="2681" transform="translate(-292 -656)" fill="#F2F2F7"/>
<path d="M16.0845 27.9155V40.0845C19.4449 40.0845 22.169 37.3604 22.169 34C22.169 30.6396 19.4449 27.9155 16.0845 27.9155Z" fill="#007AFF"/>
<path d="M19.2716 34C19.2716 30.6396 17.8447 27.9155 16.0845 27.9155C12.7241 27.9155 10 30.6396 10 34C10 37.3603 12.7241 40.0844 16.0845 40.0844C17.8447 40.0844 19.2716 37.3603 19.2716 34Z" fill="#66AFFF"/>
<path d="M34 27.9155V40.0845C37.3604 40.0845 40.0845 37.3604 40.0845 34C40.0845 30.6396 37.3604 27.9155 34 27.9155Z" fill="#007AFF"/>
<path d="M37.1872 34C37.1872 30.6396 35.7602 27.9155 34 27.9155C30.6396 27.9155 27.9155 30.6396 27.9155 34C27.9155 37.3604 30.6396 40.0845 34 40.0845C35.7602 40.0845 37.1872 37.3604 37.1872 34Z" fill="#66AFFF"/>
<path d="M51.9155 27.9155V40.0845C55.2759 40.0845 58 37.3604 58 34C58 30.6396 55.2759 27.9155 51.9155 27.9155Z" fill="#007AFF"/>
<path d="M55.1026 34C55.1026 30.6396 53.6756 27.9155 51.9154 27.9155C48.5551 27.9155 45.8309 30.6396 45.8309 34C45.8309 37.3604 48.5551 40.0845 51.9154 40.0845C53.6756 40.0845 55.1026 37.3604 55.1026 34Z" fill="#66AFFF"/>
</g>
<defs>
<clipPath id="clip0_229_131">
<rect width="375" height="2681" fill="white" transform="translate(-292 -656)"/>
</clipPath>
</defs>
</svg>
