<svg width="68" height="68" viewBox="0 0 68 68" fill="none" xmlns="http://www.w3.org/2000/svg">
<path d="M29.9026 22.4878H38.0977V54.0976H29.9026V22.4878Z" fill="#AEAEB2"/>
<path d="M38.0977 22.4878H46.2928V54.0976H38.0977V22.4878Z" fill="#D1D1D6"/>
<path d="M54.5115 23.5224L52.3279 54.0976H46.3903V22.4878H53.5482C54.1087 22.4878 54.5515 22.9634 54.5115 23.5224ZM38.1952 14.0975V22.4878H30V14.0975C30.0001 11.8345 31.8346 10 34.0976 10C36.3607 10 38.1952 11.8345 38.1952 14.0975Z" fill="#AEAEB2"/>
<path d="M29.9026 20.1464H38.0977V22.4879H29.9026V20.1464ZM54.414 23.5224L52.2304 54.0975H49.4011L51.6587 22.4878H53.4507C54.0112 22.4878 54.4539 22.9634 54.414 23.5224Z" fill="#8E8E93"/>
<path d="M21.7075 22.4878H29.9027V54.0976H21.7075V22.4878Z" fill="#D1D1D6"/>
<path d="M21.7074 22.4878V54.0976H15.7699L13.5862 23.5224C13.5463 22.9634 13.9891 22.4878 14.5496 22.4878H21.7074Z" fill="#AEAEB2"/>
<path d="M37.3733 36.0488H38.822V54.0976H37.3733V36.0488ZM45.5684 36.0488H47.0171V54.0976H45.5684V36.0488Z" fill="#8E8E93"/>
<path d="M29.1782 36.0488H30.6269V54.0976H29.1782V36.0488ZM20.9832 36.0488H22.4319V54.0976H20.9832V36.0488ZM37.3734 22.4878H38.8221V32.1464H37.3734V22.4878ZM45.5684 22.4878H47.0172V32.1464H45.5684V22.4878ZM29.1782 22.4878H30.6269V32.1464H29.1782V22.4878ZM20.9832 22.4878H22.4319V32.1464H20.9832V22.4878Z" fill="#8E8E93"/>
<path d="M34.0001 15.0732C34.5389 15.0732 34.9757 14.6364 34.9757 14.0975C34.9757 13.5587 34.5389 13.1219 34.0001 13.1219C33.4612 13.1219 33.0244 13.5587 33.0244 14.0975C33.0244 14.6364 33.4612 15.0732 34.0001 15.0732Z" fill="#D1D1D6"/>
<path d="M53.5184 36.0617L53.7971 32.1593H14.2031L14.4818 36.0617H53.5184Z" fill="#CCE4FF"/>
<path d="M50.9679 32.1593L50.6892 36.0617H53.5185L53.7972 32.1593H50.9679Z" fill="#66AFFF"/>
<path d="M52.2303 54.0976L52.0154 57.1031C51.998 57.3467 51.889 57.5747 51.7102 57.7411C51.5314 57.9075 51.2963 58 51.052 58H16.948C16.4414 58 16.0208 57.6085 15.9847 57.1031L15.7698 54.0976H52.2303Z" fill="#CCE4FF"/>
<path d="M49.4008 54.0976L49.1221 58H51.0521C51.5588 58 51.9794 57.6084 52.0155 57.103L52.2302 54.0976H49.4008Z" fill="#66AFFF"/>
</svg>
