<svg width="68" height="88" viewBox="0 0 68 88" fill="none" xmlns="http://www.w3.org/2000/svg">
<g clip-path="url(#clip0_229_1566)">
<rect width="68" height="88" rx="4" fill="white"/>
<path d="M15.2531 26.0134C14.4046 25.698 13.4747 26.2349 13.3235 27.1275C12.4728 32.1513 13.8924 37.1261 16.9117 40.8934L25.2696 35.7242C23.4783 31.3516 19.9299 27.7516 15.2531 26.0134ZM41.4454 27.1275C41.2943 26.2349 40.3643 25.6979 39.5159 26.0134C34.8389 27.7516 31.2907 31.3516 29.4994 35.7242L37.8572 40.8934C40.8765 37.1262 42.2961 32.1513 41.4454 27.1275Z" fill="#007AFF"/>
<path d="M26.3008 17.7701C17.798 27.4266 18.1592 42.1591 27.3845 51.3843C36.6097 42.1591 36.9709 27.4266 28.4681 17.7701C27.8945 17.1189 26.8743 17.1189 26.3008 17.7701Z" fill="#66AFFF"/>
<path d="M34.1817 38.4391C35.4938 31.2553 33.5941 23.6 28.4796 17.7831C27.9021 17.1263 26.8788 17.1141 26.3014 17.771C26.0104 18.1021 25.7282 18.4409 25.4551 18.7868C33.7502 27.212 33.7502 40.7878 25.4551 49.2129C26.0552 49.9737 26.6995 50.6987 27.3845 51.3841C35.4512 51.3841 42.2337 45.8894 44.1959 38.4389H34.1817V38.4391Z" fill="#007AFF"/>
<path d="M10 34.0001C10 43.6011 17.7832 51.3844 27.3844 51.3844C27.3844 41.7833 19.6011 34.0001 10 34.0001Z" fill="#CCE4FF"/>
<path d="M27.3843 51.3842C27.3843 50.396 27.3006 49.4275 27.1421 48.4843C23.8696 48.4292 20.6923 47.2611 18.1704 45.1798C16.9988 44.2129 15.2938 44.3222 14.2527 45.3919C17.44 49.0629 22.1409 51.3842 27.3843 51.3842Z" fill="#66AFFF"/>
<path d="M49.4022 36.8973H53.4724C55.9197 36.8973 57.9479 34.9534 57.9981 32.5067C58.0887 28.0991 54.7022 25.3077 51.1218 25.3077H47.8439C49.596 25.3077 51.2401 23.9566 51.2401 21.8308C51.2401 18.7093 48.7694 16.6155 46.0811 16.6155H39.0153C36.3249 16.6155 33.811 18.7147 33.8567 21.9558C33.8829 23.814 35.3943 25.3076 37.2527 25.3076H41.701C38.0967 25.3076 34.7621 28.1252 34.8228 32.428C34.8578 34.9056 36.873 36.8972 39.3508 36.8972H37.6261C33.1421 36.8972 28.9521 40.396 29.0284 45.7977C29.0721 48.8946 31.5911 51.3841 34.6884 51.3841H52.3404C55.3995 51.3841 57.9346 48.9542 57.9976 45.8958C58.1109 40.3864 53.8778 36.8973 49.4022 36.8973Z" fill="#AEAEB2"/>
<path d="M37.2529 25.3078H47.8442C49.5963 25.3078 51.2404 23.9566 51.2404 21.8309C51.2404 20.7664 50.9527 19.8219 50.4675 19.0387C49.2248 19.3821 48.3429 20.5242 48.3429 21.8309C48.3429 22.3539 47.9941 22.4103 47.8441 22.4103H37.2528C36.1213 22.4103 35.1079 23.067 34.6343 24.0726C35.2575 24.8273 36.1992 25.3078 37.2529 25.3078ZM53.4394 28.9358C54.542 29.7102 55.1323 30.9573 55.1016 32.4471C55.0839 33.3034 54.3532 33.9999 53.4726 33.9999H37.7196C37.3237 33.9999 36.9319 34.0811 36.5686 34.2386C36.2054 34.3961 35.8783 34.6265 35.6076 34.9155C36.4231 36.1124 37.7957 36.8973 39.351 36.8973H53.4727C55.9199 36.8973 57.9481 34.9534 57.9984 32.5067C58.0778 28.6457 55.4891 26.0254 52.4392 25.4346C51.9034 26.6909 52.3097 28.1425 53.4394 28.9358ZM53.881 38.1439C52.9658 39.199 52.9342 40.7786 53.8242 41.8701C54.691 42.9331 55.1325 44.3047 55.101 45.8363C55.071 47.2978 53.8327 48.4868 52.3404 48.4868H32.8906C31.9898 48.4868 31.1374 48.9113 30.5906 49.6252C31.6218 50.7087 33.0764 51.3842 34.6885 51.3842H52.3406C55.3997 51.3842 57.9349 48.9543 57.9978 45.8959C58.071 42.3365 56.3296 39.6206 53.881 38.1439Z" fill="#8E8E93"/>
<path d="M25.7867 84.2051C25.0055 84.2051 24.3277 84.0254 23.7535 83.666C23.1832 83.3066 22.7437 82.7969 22.4352 82.1367C22.1266 81.4766 21.9723 80.6914 21.9723 79.7812V79.7695C21.9723 78.8555 22.1266 78.0684 22.4352 77.4082C22.7437 76.748 23.1832 76.2383 23.7535 75.8789C24.3238 75.5195 25.0016 75.3398 25.7867 75.3398C26.4078 75.3398 26.9684 75.4629 27.4684 75.709C27.9723 75.9512 28.3844 76.2871 28.7047 76.7168C29.0289 77.1465 29.2262 77.6406 29.2965 78.1992V78.2344H27.9898L27.984 78.2109C27.9059 77.8633 27.7633 77.5625 27.5562 77.3086C27.3492 77.0547 27.0953 76.8574 26.7945 76.7168C26.4937 76.5762 26.1578 76.5059 25.7867 76.5059C25.2828 76.5059 24.8453 76.6387 24.4742 76.9043C24.107 77.1699 23.8219 77.5469 23.6187 78.0352C23.4195 78.5195 23.3199 79.0977 23.3199 79.7695V79.7812C23.3199 80.4453 23.4195 81.0215 23.6187 81.5098C23.8219 81.998 24.107 82.375 24.4742 82.6406C24.8453 82.9062 25.2848 83.0391 25.7926 83.0391C26.1637 83.0391 26.4996 82.9766 26.8004 82.8516C27.1051 82.7266 27.359 82.5488 27.5621 82.3184C27.7652 82.084 27.9039 81.8086 27.9781 81.4922L27.9898 81.4688H29.3023L29.2965 81.498C29.2145 82.041 29.0152 82.5156 28.6988 82.9219C28.3824 83.3281 27.9762 83.6445 27.4801 83.8711C26.984 84.0938 26.4195 84.2051 25.7867 84.2051ZM37.627 84H36.3086V76.6816H32.0547V84H30.7422V75.5449H37.627V84ZM38.809 84L41.8617 75.5449H42.9223V77.0273H42.5238L40.1918 84H38.809ZM40.2797 81.7148L40.6488 80.6602H44.4984L44.8676 81.7148H40.2797ZM44.9496 84L42.6234 77.0273V75.5449H43.2855L46.3324 84H44.9496Z" fill="black"/>
</g>
<defs>
<clipPath id="clip0_229_1566">
<rect width="68" height="88" rx="4" fill="white"/>
</clipPath>
</defs>
</svg>
