<svg width="68" height="68" viewBox="0 0 68 68" fill="none" xmlns="http://www.w3.org/2000/svg">
<path d="M46.881 25.1399C46.881 28.178 46.1907 30.7273 44.8463 33.4518L41.843 40.3927C40.736 42.6376 39.8141 45.127 39.8141 47.6305V53.3485C39.8141 54.0946 39.208 54.6996 38.463 54.6996C37.6002 54.6996 37.1062 54.798 36.3448 54.4361C35.5746 54.0706 34.8954 53.5381 34.3566 52.8774C32.7218 50.8721 31.5529 48.5286 30.9343 46.0164L30.4257 43.9491C30.3284 43.5553 30.1021 43.2054 29.7829 42.9551C29.4638 42.7049 29.07 42.5689 28.6644 42.569C27.8296 42.569 27.1028 43.1394 26.903 43.9491L26.3944 46.0164C26.0861 47.2685 25.6401 48.4827 25.0645 49.6366C24.4889 50.7908 23.7871 51.8777 22.9721 52.8774C22.4337 53.5381 21.7549 54.0706 20.985 54.4361C20.2148 54.8022 19.3728 54.9921 18.5201 54.992C17.774 54.992 17.169 54.3869 17.169 53.6409V47.6109C17.169 45.1074 16.5928 42.6377 15.4858 40.3928L12.0432 33.4131C11.3728 32.0554 10.8608 30.625 10.5173 29.1502C10.1735 27.6757 9.99995 26.1666 10 24.6526C10 21.8866 11.1214 19.3811 12.9339 17.5686C14.7464 15.7561 17.2518 14.6347 20.0178 14.6347C21.7743 14.6347 23.5 15.096 25.0219 15.9734L28.7 18.0937L29.9676 17.9822L30.1436 17.2451L32.3066 15.9735C33.0641 15.5368 33.8756 15.2013 34.7204 14.9755C34.9878 14.904 35.2584 14.8442 35.531 14.795C35.531 14.795 36.7079 14.8939 37.3069 14.8939C40.0729 14.8939 42.1435 16.1517 43.956 17.9641C45.7686 19.7764 46.881 22.3738 46.881 25.1399Z" fill="#D1D1D6"/>
<path d="M47.3286 24.6525C47.3296 27.655 46.6326 30.6764 45.2855 33.4129L41.8429 40.3926C40.7357 42.6377 40.1598 45.1074 40.1597 47.6107V53.6407C40.1597 53.8994 40.0864 54.1416 39.9599 54.3481C39.7225 54.7342 39.2959 54.9918 38.8095 54.9918H38.8085C37.9414 54.9918 37.0976 54.7959 36.3331 54.4305L36.333 54.4302C36.4996 54.2007 36.5892 53.9243 36.5887 53.6407V51.1914C36.5887 50.5806 36.4574 49.9791 36.2219 49.4155C36.1071 49.1407 36.0021 48.8619 35.9074 48.5796C35.4827 47.3124 35.2666 45.9873 35.2666 44.6381C35.2666 40.3475 37.4618 36.5592 40.7875 34.3378C41.2563 34.0246 41.639 33.5975 41.8769 33.0865C43.0892 30.4812 43.7655 27.5378 43.7576 24.6525C43.7576 21.8865 42.6362 19.3811 40.8236 17.5686C39.4116 16.1566 37.5799 15.1645 35.531 14.7948C36.1182 14.6882 36.7138 14.6346 37.3106 14.6346C40.0766 14.6346 42.5821 15.756 44.3945 17.5685C46.2072 19.3811 47.3286 21.8865 47.3286 24.6525ZM34.0245 20.3172C33.9609 20.4277 33.8694 20.5194 33.7591 20.5831C33.6488 20.6468 33.5236 20.6803 33.3962 20.6801C33.2694 20.6799 33.1449 20.6463 33.0352 20.5826L28.7 18.0936L30.1438 17.2452L33.7591 19.3289C34.1046 19.5287 34.2244 19.9707 34.0245 20.3172Z" fill="#C7C7CC"/>
<path d="M18.5904 17.409C16.5853 18.4382 15.668 19.3556 14.6388 21.3607C14.5668 21.501 14.3667 21.501 14.2947 21.3607C13.2654 19.3556 12.3481 18.4382 10.3431 17.409C10.2027 17.337 10.2027 17.137 10.3431 17.065C12.3482 16.0358 13.2655 15.1184 14.2947 13.1133C14.3667 12.973 14.5668 12.973 14.6388 13.1133C15.668 15.1184 16.5853 16.0358 18.5904 17.065C18.7307 17.137 18.7307 17.337 18.5904 17.409ZM43.3371 26.511C41.7371 27.3407 40.9848 28.0931 40.155 29.6932C40.0825 29.8329 39.8838 29.8329 39.8113 29.6932C38.9816 28.0932 38.2293 27.3407 36.6291 26.511C36.4895 26.4386 36.4895 26.2398 36.6291 26.1674C38.2292 25.3377 38.9816 24.5853 39.8113 22.9852C39.8838 22.8455 40.0825 22.8455 40.155 22.9852C40.9847 24.5852 41.737 25.3377 43.3371 26.1674C43.4768 26.2398 43.4768 26.4386 43.3371 26.511ZM32.5901 33.7048C31.5942 34.2534 31.0559 34.7917 30.5073 35.7876C30.3978 35.9865 30.1107 35.9865 30.0012 35.7876C29.4526 34.7917 28.9143 34.2534 27.9184 33.7048C27.7195 33.5953 27.7195 33.3082 27.9184 33.1987C28.9143 32.6501 29.4526 32.1118 30.0012 31.1159C30.1107 30.917 30.3978 30.917 30.5073 31.1159C31.0559 32.1118 31.5942 32.6501 32.5901 33.1987C32.789 33.3083 32.789 33.5953 32.5901 33.7048Z" fill="black"/>
<path d="M37.2939 44.6387C37.2939 45.7908 37.4817 46.8992 37.8292 47.9344C39.6049 51.5609 43.0206 54.4373 47.5862 54.4373C53.304 54.4373 57.465 50.3564 57.465 44.6387C57.465 40.0731 54.5748 36.9442 50.943 34.8207C49.9077 34.4732 48.7992 34.2856 47.6469 34.2856C41.9291 34.2857 37.2939 38.9209 37.2939 44.6387Z" fill="#66AFFF"/>
<path d="M57.9999 44.6385C57.9999 50.3565 53.3649 54.9917 47.6468 54.9917C43.0809 54.9917 39.2055 52.0365 37.829 47.9346C38.8646 48.283 39.9739 48.4711 41.1261 48.4711C46.8441 48.4711 51.4793 43.836 51.4793 38.1179C51.4793 36.9657 51.2913 35.8564 50.9427 34.8208C55.0448 36.1971 57.9999 40.0726 57.9999 44.6385Z" fill="#007AFF"/>
<path d="M42.2938 42.7455H45.5338C45.5921 42.7455 45.648 42.7224 45.6893 42.6812C45.7305 42.6399 45.7537 42.584 45.7537 42.5257V39.2857C45.7537 39.2274 45.7768 39.1715 45.8181 39.1302C45.8593 39.089 45.9152 39.0659 45.9735 39.0659H49.32C49.3783 39.0659 49.4342 39.089 49.4755 39.1302C49.5167 39.1715 49.5398 39.2274 49.5398 39.2857V42.5257C49.5398 42.584 49.563 42.6399 49.6042 42.6812C49.6455 42.7224 49.7014 42.7455 49.7597 42.7455H50.3897L52.8083 42.9104C52.8667 42.9104 52.9226 42.9335 52.9638 42.9747C53.005 43.016 53.0282 43.0719 53.0282 43.1302L53.098 46.1594C53.098 46.1882 53.0924 46.2168 53.0813 46.2435C53.0703 46.2702 53.0541 46.2944 53.0336 46.3148C53.0132 46.3352 52.989 46.3514 52.9623 46.3625C52.9357 46.3735 52.9071 46.3792 52.8782 46.3792L49.5965 46.3682C49.5676 46.3682 49.539 46.3739 49.5123 46.385C49.4857 46.396 49.4614 46.4122 49.441 46.4326C49.4206 46.453 49.4044 46.4773 49.3934 46.5039C49.3823 46.5306 49.3766 46.5592 49.3766 46.5881L49.4866 49.6962C49.4866 49.7545 49.4634 49.8104 49.4222 49.8516C49.381 49.8929 49.3251 49.916 49.2668 49.916L46.1654 50.0498C46.1071 50.0498 46.0512 50.0266 46.01 49.9854C45.9687 49.9442 45.9456 49.8883 45.9456 49.83L45.7537 47.3813V46.7515C45.7537 46.7226 45.748 46.694 45.7369 46.6674C45.7259 46.6407 45.7097 46.6164 45.6893 46.596C45.6689 46.5756 45.6446 46.5594 45.6179 46.5484C45.5913 46.5373 45.5627 46.5316 45.5338 46.5316H42.2938C42.2355 46.5316 42.1796 46.5085 42.1384 46.4673C42.0971 46.426 42.074 46.3701 42.074 46.3118V42.9653C42.074 42.907 42.0972 42.8511 42.1384 42.8099C42.1796 42.7687 42.2355 42.7455 42.2938 42.7455Z" fill="#D1D1D6"/>
<path d="M53.2198 42.9651V46.3117C53.2198 46.3406 53.2141 46.3692 53.203 46.3959C53.192 46.4225 53.1758 46.4468 53.1554 46.4672C53.135 46.4876 53.1107 46.5038 53.0841 46.5148C53.0574 46.5259 53.0288 46.5316 52.9999 46.5316H49.7599C49.7017 46.5317 49.6458 46.5549 49.6046 46.5961C49.5635 46.6373 49.5402 46.6931 49.5401 46.7514V49.9914C49.5401 50.0203 49.5344 50.0489 49.5234 50.0755C49.5123 50.1022 49.4961 50.1265 49.4757 50.1469C49.4553 50.1673 49.431 50.1835 49.4044 50.1945C49.3777 50.2056 49.3491 50.2113 49.3202 50.2112H45.9736C45.9448 50.2113 45.9162 50.2056 45.8895 50.1945C45.8628 50.1835 45.8386 50.1673 45.8181 50.1469C45.7977 50.1265 45.7815 50.1022 45.7705 50.0755C45.7595 50.0489 45.7538 50.0203 45.7538 49.9914V47.3814C47.759 46.3767 49.3853 44.7504 50.39 42.7452H53C53.0582 42.7454 53.114 42.7687 53.1552 42.8099C53.1963 42.8511 53.2196 42.9069 53.2198 42.9651Z" fill="#C7C7CC"/>
</svg>
